M48
; DRILL file KiCad 10.0.3 date 2026-06-12T11:26:01
; FORMAT={-:-/ absolute / metric / decimal}
; #@! TF.CreationDate,2026-06-12T11:26:01+05:30
; #@! TF.GenerationSoftware,Kicad,Pcbnew,10.0.3
; #@! TF.FileFunction,Plated,1,2,PTH
FMAT,2
METRIC
; #@! TA.AperFunction,Plated,PTH,ComponentDrill
T1C0.600
; #@! TA.AperFunction,Plated,PTH,ComponentDrill
T2C0.700
; #@! TA.AperFunction,Plated,PTH,ComponentDrill
T3C0.800
; #@! TA.AperFunction,Plated,PTH,ComponentDrill
T4C0.900
; #@! TA.AperFunction,Plated,PTH,ComponentDrill
T5C1.000
; #@! TA.AperFunction,Plated,PTH,ComponentDrill
T6C1.100
%
G90
G05
T1
X121.223Y-81.0
X122.223Y-108.0
X122.723Y-81.0
X123.723Y-108.0
T2
X119.69Y-90.5
X119.69Y-93.0
X120.0Y-96.19
X120.0Y-103.81
X122.5Y-69.69
X122.5Y-77.31
X125.5Y-96.2
X125.5Y-98.74
X125.5Y-103.82
X126.0Y-69.96
X126.0Y-71.23
X126.0Y-72.5
X126.0Y-73.77
X126.0Y-75.04
X126.0Y-76.31
X126.0Y-77.58
X126.0Y-78.85
X127.15Y-107.5
X127.31Y-90.5
X127.31Y-93.0
X128.42Y-107.5
X129.69Y-107.5
X130.96Y-107.5
X132.23Y-107.5
X133.5Y-107.5
X134.77Y-107.5
X136.04Y-107.5
X137.31Y-107.5
X138.58Y-107.5
X140.0Y-78.69
X140.0Y-86.31
X140.975Y-69.825
X140.975Y-71.095
X140.975Y-72.365
X140.975Y-73.635
X140.975Y-74.905
X140.975Y-76.175
X142.5Y-78.69
X142.5Y-86.31
X145.0Y-78.69
X145.0Y-86.31
T3
X129.78Y-70.33
X129.78Y-72.87
X129.78Y-75.41
X129.78Y-77.95
X129.78Y-80.49
X129.78Y-83.03
X129.78Y-85.57
X129.78Y-88.11
X129.78Y-90.65
X129.78Y-93.19
X129.78Y-95.73
X129.78Y-98.27
X129.78Y-100.81
X129.78Y-103.35
X137.4Y-70.33
X137.4Y-72.87
X137.4Y-75.41
X137.4Y-77.95
X137.4Y-80.49
X137.4Y-83.03
X137.4Y-85.57
X137.4Y-88.11
X137.4Y-90.65
X137.4Y-93.19
X137.4Y-95.73
X137.4Y-98.27
X137.4Y-100.81
X137.4Y-103.35
T4
X121.5Y-85.23
X121.5Y-87.77
X126.0Y-85.23
X126.0Y-87.77
T5
X148.1Y-73.125
X148.1Y-75.665
X148.1Y-78.205
X148.1Y-80.745
X148.1Y-83.285
X148.1Y-85.825
T6
X122.92Y-67.0
X133.08Y-67.0
X140.5Y-89.5
X140.5Y-94.0
X140.5Y-98.0
X140.5Y-102.5
X147.0Y-89.5
X147.0Y-94.0
X147.0Y-98.0
X147.0Y-102.5
X150.25Y-89.75
X150.25Y-94.25
X156.75Y-89.75
X156.75Y-94.25
M30
